<svg xmlns="http://www.w3.org/2000/svg" viewBox="0 0 367.71 79.7"><defs><style>.a,.b,.c{fill:#231f20;}.a,.b{stroke:#231f20;stroke-linejoin:round;}.b{font-size:15.71px;stroke-width:0.5px;font-family:Helvetica Neue;letter-spacing:10px;}</style></defs><title>logo</title><path class="a" d="M131.52,61.61q-0.08-2.13-.18-4.26l1.76,0.12c0.6,0,1.19,0,1.76,0s1.16,0,1.76-.08,1.19-.08,1.76-0.08a16,16,0,0,1,2.7.22,6.81,6.81,0,0,1,2.23.77,4.17,4.17,0,0,1,1.53,1.48,4.42,4.42,0,0,1,.57,2.33A4.93,4.93,0,0,1,143.87,66a8.81,8.81,0,0,1-4,2V68a8.23,8.23,0,0,1,4.68,1.43,4.88,4.88,0,0,1,1.71,4.16,5.94,5.94,0,0,1-.77,3.13,6.15,6.15,0,0,1-2,2,8.23,8.23,0,0,1-2.71,1.1,14.07,14.07,0,0,1-2.95.32c-0.53,0-1.07,0-1.61,0s-1.08,0-1.61,0H133q-0.82,0-1.61.07,0.1-2.13.18-4.24t0.08-4.31V65.93Q131.61,63.74,131.52,61.61Zm6.92,5.72a6.23,6.23,0,0,0,2-.78,4.26,4.26,0,0,0,1.45-1.46,4.45,4.45,0,0,0,.55-2.31,4.15,4.15,0,0,0-.5-2.18,3.64,3.64,0,0,0-1.27-1.26,4.84,4.84,0,0,0-1.73-.6,12.6,12.6,0,0,0-1.93-.15q-0.87,0-1.46.05c-0.4,0-.75.07-1.06,0.12q-0.07,1.59-.13,3.16t-0.07,3.16v2.5h1.8A11.5,11.5,0,0,0,138.45,67.33Zm-4,8.22q0.07,1.66.13,3.36c0.42,0,.92.08,1.5,0.12s1.16,0,1.76,0a5.83,5.83,0,0,0,2-.37,4.85,4.85,0,0,0,1.71-1.08,5.22,5.22,0,0,0,1.17-1.76,6.2,6.2,0,0,0,.43-2.38,4.74,4.74,0,0,0-.52-2.35,3.6,3.6,0,0,0-1.48-1.43,7.11,7.11,0,0,0-2.31-.72,20.88,20.88,0,0,0-3-.2h-1.5v3.4Q134.34,73.89,134.4,75.56Z" transform="translate(-40.79 -31.98)"/><path class="a" d="M160.11,61.66q-0.08-2.11-.18-4.31l0.83,0.12a6.42,6.42,0,0,0,1.6,0l0.83-.12q-0.1,2.19-.18,4.31T162.92,66q0,4.19,0,7.27T163,78.75q2.36,0,4.53,0a42.9,42.9,0,0,0,4.66-.38,3.89,3.89,0,0,0-.17,1,3.14,3.14,0,0,0,.17.9q-1.53-.07-3.06-0.07H163q-1.48,0-3.08.07,0.1-2.06.18-4.19t0.08-4.33V66Q160.19,63.77,160.11,61.66Z" transform="translate(-40.79 -31.98)"/><path class="a" d="M203.45,80.21a6.1,6.1,0,0,0-.88-0.07h-1.76a6.09,6.09,0,0,0-.88.07c-0.16-.51-0.37-1.13-0.63-1.85s-0.56-1.47-.88-2.26l-1-2.4q-0.5-1.21-.93-2.31l-2.16-.05h-4.23l-2,.05Q187,74,186.15,76.34t-1.3,3.88a11.27,11.27,0,0,0-2.46,0q2.7-5.83,5.26-11.58t5.16-11.72h0.63l1.73,4.18,1.9,4.54q1,2.29,1.93,4.56t1.81,4.21q0.85,1.95,1.53,3.48C202.79,78.91,203.16,79.68,203.45,80.21ZM188.71,69.86q0.86,0,1.8,0t1.8,0l1.86,0,1.86,0-3.69-8.45Z" transform="translate(-40.79 -31.98)"/><path class="a" d="M230.79,79.43a9,9,0,0,1-1.56.57q-0.92.25-2,.45a13.78,13.78,0,0,1-2.36.2A15.2,15.2,0,0,1,220,79.9a10.25,10.25,0,0,1-3.84-2.28,10.73,10.73,0,0,1-2.53-3.75,14.35,14.35,0,0,1,0-10.09A10.52,10.52,0,0,1,216.14,60a11,11,0,0,1,3.94-2.33,15.35,15.35,0,0,1,5.06-.8,16.74,16.74,0,0,1,4,.45,18.8,18.8,0,0,1,3.21,1.08,4.37,4.37,0,0,0-.43,1.26c-0.11.53-.2,1-0.27,1.33l-0.2.07a7.5,7.5,0,0,0-.93-0.9,10.31,10.31,0,0,0-1.4-1,8.9,8.9,0,0,0-1.8-.78,7.25,7.25,0,0,0-2.2-.32,10.26,10.26,0,0,0-3.64.63,7.76,7.76,0,0,0-2.93,1.95,9.06,9.06,0,0,0-1.95,3.33,16.66,16.66,0,0,0,0,9.55,9.06,9.06,0,0,0,1.95,3.33,7.76,7.76,0,0,0,2.93,1.95,10.25,10.25,0,0,0,3.64.63,7.83,7.83,0,0,0,2.21-.3,12,12,0,0,0,1.86-.72,11.32,11.32,0,0,0,1.53-.9c0.45-.32.84-0.6,1.15-0.85L232,76.89l-0.3,2A4.3,4.3,0,0,1,230.79,79.43Z" transform="translate(-40.79 -31.98)"/><path class="a" d="M244.9,76q0.08-2.13.08-4.33V66q0-2.2-.08-4.31t-0.18-4.31l0.83,0.12a6.43,6.43,0,0,0,1.6,0l0.83-.12q-0.1,2.19-.18,4.31T247.71,66V67.8c0,0.18.07,0.27,0.2,0.27a1,1,0,0,0,.47-0.3q1.16-1,2.45-2.27t2.58-2.63q1.3-1.36,2.56-2.78t2.43-2.74l0.7,0.12a4.61,4.61,0,0,0,.67,0,6.63,6.63,0,0,0,.8,0l0.8-.12q-1.17,1-2.63,2.36t-2.95,2.8q-1.48,1.43-2.83,2.81t-2.25,2.41q2.7,3,5.44,6.17t5.57,6.31a7.36,7.36,0,0,0-1-.07h-1.91a6.31,6.31,0,0,0-.92.07q-1.2-1.36-2.65-3.13t-2.83-3.41l-2.5-3q-1.11-1.31-1.65-1.85a0.73,0.73,0,0,0-.4-0.27,0.16,0.16,0,0,0-.17.2v2.9q0,2.2.08,4.33T248,80.21q-0.77-.07-1.63-0.07t-1.63.07Q244.81,78.15,244.9,76Z" transform="translate(-40.79 -31.98)"/><path class="a" d="M281.46,61.66q-0.08-2.11-.18-4.31l2.51,0.12q1.25,0,2.51,0t2.51-.08q1.25-.08,2.51-0.08a14.5,14.5,0,0,1,5,.77,8.75,8.75,0,0,1,3.41,2.18,8.58,8.58,0,0,1,1.95,3.46,16,16,0,0,1,.62,4.61A12.37,12.37,0,0,1,301.16,74a10.69,10.69,0,0,1-2.93,3.68,10.93,10.93,0,0,1-3.93,2,15.62,15.62,0,0,1-4.11.58c-0.76,0-1.5,0-2.23,0s-1.48,0-2.23,0h-2.23q-1.1,0-2.23.07,0.1-2.06.18-4.19t0.08-4.33V66Q281.54,63.77,281.46,61.66Zm3,17.09a12,12,0,0,0,1.9.25q1.2,0.08,2.46.08a15.87,15.87,0,0,0,3.66-.43A7.93,7.93,0,0,0,295.77,77a8.7,8.7,0,0,0,2.36-3.28,13.46,13.46,0,0,0,.92-5.37,13.47,13.47,0,0,0-.71-4.76,7.27,7.27,0,0,0-2-2.95,7,7,0,0,0-3-1.5,16.21,16.21,0,0,0-3.79-.41q-1.5,0-2.8.1t-2.33.23q-0.1,1.59-.15,3.34c0,1.17,0,2.35,0,3.55v5.72Q284.27,75.29,284.47,78.75Z" transform="translate(-40.79 -31.98)"/><path class="a" d="M316,63.79A10.52,10.52,0,0,1,318.57,60a11,11,0,0,1,3.94-2.33,16.3,16.3,0,0,1,10.09,0A11,11,0,0,1,336.55,60a10.53,10.53,0,0,1,2.56,3.75,14.34,14.34,0,0,1,0,10.09,10.27,10.27,0,0,1-6.51,6,17.39,17.39,0,0,1-10.09,0,10.27,10.27,0,0,1-6.51-6A14.35,14.35,0,0,1,316,63.79Zm20.05,0.27a9.08,9.08,0,0,0-1.95-3.33,7.77,7.77,0,0,0-2.93-1.95,10.27,10.27,0,0,0-3.64-.63,10.16,10.16,0,0,0-3.61.63A7.77,7.77,0,0,0,321,60.73a9.07,9.07,0,0,0-1.95,3.33,16.67,16.67,0,0,0,0,9.55A9.07,9.07,0,0,0,321,76.94a7.76,7.76,0,0,0,2.93,1.95,10.15,10.15,0,0,0,3.61.63,10.26,10.26,0,0,0,3.64-.63,7.77,7.77,0,0,0,2.93-1.95,9.08,9.08,0,0,0,1.95-3.33A16.7,16.7,0,0,0,336.06,64.05Z" transform="translate(-40.79 -31.98)"/><path class="a" d="M353.25,63.79A10.51,10.51,0,0,1,355.82,60a11,11,0,0,1,3.94-2.33,16.3,16.3,0,0,1,10.08,0A11,11,0,0,1,373.79,60a10.53,10.53,0,0,1,2.56,3.75,14.36,14.36,0,0,1,0,10.09,10.27,10.27,0,0,1-6.51,6,17.39,17.39,0,0,1-10.08,0,10.27,10.27,0,0,1-6.51-6A14.35,14.35,0,0,1,353.25,63.79Zm20.05,0.27a9.08,9.08,0,0,0-1.95-3.33,7.76,7.76,0,0,0-2.93-1.95,10.72,10.72,0,0,0-7.26,0,7.76,7.76,0,0,0-2.93,1.95,9.06,9.06,0,0,0-1.95,3.33,16.68,16.68,0,0,0,0,9.55,9.06,9.06,0,0,0,1.95,3.33,7.76,7.76,0,0,0,2.93,1.95,10.75,10.75,0,0,0,7.26,0,7.76,7.76,0,0,0,2.93-1.95,9.08,9.08,0,0,0,1.95-3.33A16.7,16.7,0,0,0,373.31,64.05Z" transform="translate(-40.79 -31.98)"/><path class="a" d="M391.37,61.66q-0.08-2.11-.18-4.31l1.9,0.12q0.93,0,1.9,0t1.9-.08q0.93-.08,1.9-0.08a12.79,12.79,0,0,1,2.66.27,6.48,6.48,0,0,1,2.21.88,4.46,4.46,0,0,1,1.5,1.61,5.78,5.78,0,0,1-.17,5.24,6.7,6.7,0,0,1-1.75,1.9A8.68,8.68,0,0,1,401,68.42a11.11,11.11,0,0,1-2.15.55l1.1,1.4,1.56,2,1.8,2.26,1.8,2.26q0.87,1.08,1.63,2T408,80.21a7.37,7.37,0,0,0-1-.07h-2a6.65,6.65,0,0,0-1,.07l-1.52-2.1q-1-1.4-2.25-3t-2.51-3.18q-1.28-1.58-2.35-2.68h-1.26v2.43q0,2.2.08,4.33t0.18,4.19q-0.77-.07-1.63-0.07t-1.63.07q0.1-2.06.18-4.19t0.08-4.33V66Q391.45,63.77,391.37,61.66ZM395.19,68c0.37,0,.77,0,1.22,0a10.45,10.45,0,0,0,2.15-.23,6.22,6.22,0,0,0,2-.81,4.88,4.88,0,0,0,1.55-1.56,4.59,4.59,0,0,0,.62-2.48,4.32,4.32,0,0,0-.48-2.15A3.86,3.86,0,0,0,401,59.44a4.76,4.76,0,0,0-1.66-.68,8.85,8.85,0,0,0-1.76-.18q-1.17,0-1.93.05c-0.51,0-.94.07-1.3,0.12q-0.07,1.83-.13,3.63T394.18,66v1.9A6.52,6.52,0,0,0,395.19,68Z" transform="translate(-40.79 -31.98)"/><text class="b" transform="translate(89.89 73.58)">HOMES</text><path class="c" d="M79.16,32L40.79,63.79v47.89H90.07l0.06-26.8a10.57,10.57,0,0,0-20.34-4A11.12,11.12,0,0,0,69,84.58h0c0,0.45,0,1,0,1.52,0,2.63,0,7,0,13.94h4.48c0-8.6,0-13.34,0-15.64a6.07,6.07,0,0,1,12.11.12l0,22.67H45.27V65.89L79.19,37.77l34.68,28.13V107.2H97.24v4.48h21.11V63.77Z" transform="translate(-40.79 -31.98)"/></svg>