<svg xmlns="http://www.w3.org/2000/svg" viewBox="0 0 38.63 50.21"><defs><style>.a{fill:#323b4a;}</style></defs><title>phone-icon</title><path class="a" d="M386.38,1626.58c1.17,1.88,2.4,3.73,3.45,5.67,1.16,2.15,2.94,5.41,5.71,5.63,1.66,0.13,3.19-1,4.51-1.82l1.5-1c1.78-1.16,3.65-.54,4.81,1.25l5.35,8.21c1.17,1.8,1.07,4-.73,5.12a13.62,13.62,0,0,1-12.26,1.17c-7.47-2.71-13.12-9.28-17.34-15.76a49.19,49.19,0,0,1-5.35-10.89c-1.78-5.21-3.46-11.65-.78-16.86a13.87,13.87,0,0,1,4.76-5.22c1.8-1.17,3.81-.4,5,1.4l5.45,8.37c1.16,1.79,1.18,4.05-.6,5.21l-1.5,1a6.26,6.26,0,0,0-2,8.52" transform="translate(-373.85 -1601.55)"/></svg>