<svg xmlns="http://www.w3.org/2000/svg" viewBox="0 0 32.18 59.37"><defs><style>.a{fill:#323b4a;}</style></defs><title>usd-icon</title><path class="a" d="M902.82,1654h-8.24v-6.75a18.4,18.4,0,0,1-4.07-1.29,17.27,17.27,0,0,1-5.87-4.35l-2.32-2.64,6.18-5.45,2.33,2.6a9.92,9.92,0,0,0,4.54,2.83c3.62,1.06,8.24.69,9.79-2.66a5.35,5.35,0,0,0,.46-2.3,3.61,3.61,0,0,0-.37-1.79,4.85,4.85,0,0,0-1.31-1.49,12.78,12.78,0,0,0-3.58-1.65l-2.41-.83c-0.93-.31-1.86-0.63-2.78-1s-1.77-.68-2.59-1a16.5,16.5,0,0,1-4.12-2.61,11.55,11.55,0,0,1-3-4,13.12,13.12,0,0,1-1-5.38,12.89,12.89,0,0,1,1.06-5.25,12.63,12.63,0,0,1,2.93-4.1,14.58,14.58,0,0,1,4.25-2.67,16.3,16.3,0,0,1,1.87-.64v-6.89h8.24v6.53a19.31,19.31,0,0,1,3.54.93,13.76,13.76,0,0,1,6,4.31l2.12,2.63-6.22,5.49L906,1611.6a7.34,7.34,0,0,0-4.24-2.39,8.92,8.92,0,0,0-7.47,1.49,5,5,0,0,0-1.15,1.53,4.42,4.42,0,0,0-.39,2,4.31,4.31,0,0,0,.36,1.94,4.77,4.77,0,0,0,1.16,1.46,13,13,0,0,0,4.33,2.08l1.89,0.65c1.52,0.52,3,1,4.5,1.63a17.68,17.68,0,0,1,4.34,2.46,12.23,12.23,0,0,1,3.3,4,12,12,0,0,1,1.26,5.61,13.42,13.42,0,0,1-1.16,5.64,12.28,12.28,0,0,1-3.24,4.32,14.43,14.43,0,0,1-4.64,2.62,17.09,17.09,0,0,1-2,.56V1654Z" transform="translate(-882.31 -1594.59)"/></svg>